<svg width="18" height="25" viewBox="0 0 18 25" fill="none" xmlns="http://www.w3.org/2000/svg">
<path d="M1.53101 9.94111V21.3849L5.32799 23.3594H12.922L16.7189 21.3849V9.94111C16.7189 9.68268 16.6189 9.43429 16.4398 9.248L9.84581 2.39028C9.45236 1.98109 8.79759 1.98109 8.40414 2.39028L1.81017 9.248C1.63105 9.43429 1.53101 9.68268 1.53101 9.94111Z" fill="#FF7300" fill-opacity="0.15"/>
<path d="M1.53101 9.53841L5.32799 11.5128L9.12497 9.53841L12.922 11.5128L16.7189 9.53841" stroke="#FF7300" stroke-width="1.5" stroke-linecap="round" stroke-linejoin="round"/>
<path d="M5.328 11.5128V23.3594" stroke="#FF7300" stroke-width="1.5" stroke-linecap="round" stroke-linejoin="round"/>
<path d="M12.922 11.5128V23.3594" stroke="#FF7300" stroke-width="1.5" stroke-linecap="round" stroke-linejoin="round"/>
<path d="M12.922 5.58947H5.328L9.12499 1.64061L12.922 5.58947Z" fill="#FF7300"/>
<path d="M1.53101 21.3849V9.53834L9.12497 1.64061L16.7189 9.53834V21.3849" stroke="#FF7300" stroke-width="1.5" stroke-linecap="round" stroke-linejoin="round"/>
</svg>
