<svg width="18" height="25" viewBox="0 0 18 25" fill="none" xmlns="http://www.w3.org/2000/svg">
<path d="M1.53125 9.94111V21.3849L5.32823 23.3594H12.9222L16.7192 21.3849V9.94111C16.7192 9.68268 16.6191 9.43429 16.44 9.248L9.84605 2.39028C9.4526 1.98109 8.79784 1.98109 8.40439 2.39028L1.81042 9.248C1.6313 9.43429 1.53125 9.68268 1.53125 9.94111Z" fill="#DCDCDC" fill-opacity="0.79"/>
<path d="M1.53125 9.53841L5.32823 11.5128L9.12522 9.53841L12.9222 11.5128L16.7192 9.53841" stroke="#00243C" stroke-width="1.5" stroke-linecap="round" stroke-linejoin="round"/>
<path d="M5.32812 11.5128V23.3594" stroke="#00243C" stroke-width="1.5" stroke-linecap="round" stroke-linejoin="round"/>
<path d="M12.9219 11.5128V23.3594" stroke="#00243C" stroke-width="1.5" stroke-linecap="round" stroke-linejoin="round"/>
<path d="M12.9221 5.58947H5.32812L9.12511 1.64061L12.9221 5.58947Z" fill="#00243C"/>
<path d="M1.53125 21.3849V9.53834L9.12522 1.64061L16.7192 9.53834V21.3849" stroke="#00243C" stroke-width="1.5" stroke-linecap="round" stroke-linejoin="round"/>
</svg>
