<svg width="46" height="46" viewBox="0 0 46 46" fill="none" xmlns="http://www.w3.org/2000/svg">
<path d="M44.3947 8.02353C44.3947 8.44911 44.2257 8.85726 43.9247 9.15819C43.6238 9.45912 43.2156 9.62818 42.7901 9.62818H38.511V13.9072C38.511 14.3328 38.3419 14.741 38.041 15.0419C37.7401 15.3428 37.3319 15.5119 36.9063 15.5119C36.4808 15.5119 36.0726 15.3428 35.7717 15.0419C35.4707 14.741 35.3017 14.3328 35.3017 13.9072V9.62818H31.0226C30.597 9.62818 30.1889 9.45912 29.888 9.15819C29.587 8.85726 29.418 8.44911 29.418 8.02353C29.418 7.59795 29.587 7.1898 29.888 6.88887C30.1889 6.58794 30.597 6.41888 31.0226 6.41888H35.3017V2.13981C35.3017 1.71423 35.4707 1.30608 35.7717 1.00515C36.0726 0.704217 36.4808 0.535156 36.9063 0.535156C37.3319 0.535156 37.7401 0.704217 38.041 1.00515C38.3419 1.30608 38.511 1.71423 38.511 2.13981V6.41888H42.7901C43.2156 6.41888 43.6238 6.58794 43.9247 6.88887C44.2257 7.1898 44.3947 7.59795 44.3947 8.02353Z" fill="url(#paint0_linear_129_2771)"/>
<path d="M10.6977 14.4419C10.6977 15.6056 11.0427 16.7431 11.6893 17.7107C12.3358 18.6783 13.2547 19.4324 14.3298 19.8777C15.4049 20.323 16.5879 20.4396 17.7293 20.2125C18.8706 19.9855 19.919 19.4251 20.7418 18.6023C21.5647 17.7794 22.125 16.731 22.3521 15.5897C22.5791 14.4484 22.4626 13.2654 22.0172 12.1903C21.5719 11.1151 20.8178 10.1962 19.8502 9.54973C18.8826 8.90321 17.7451 8.55814 16.5814 8.55814C15.0213 8.55927 13.5254 9.17953 12.4222 10.2827C11.3191 11.3859 10.6988 12.8817 10.6977 14.4419ZM19.2558 14.4419C19.2558 14.9708 19.099 15.4879 18.8051 15.9277C18.5112 16.3675 18.0935 16.7103 17.6049 16.9127C17.1162 17.1151 16.5784 17.1681 16.0596 17.0649C15.5409 16.9617 15.0643 16.707 14.6903 16.333C14.3163 15.9589 14.0616 15.4824 13.9584 14.9636C13.8552 14.4448 13.9081 13.9071 14.1106 13.4184C14.313 12.9297 14.6558 12.512 15.0956 12.2182C15.5354 11.9243 16.0524 11.7674 16.5814 11.7674C17.2903 11.7686 17.9699 12.0507 18.4712 12.552C18.9725 13.0533 19.2547 13.7329 19.2558 14.4419ZM44.3954 17.1163C43.9698 17.1163 43.5616 17.2853 43.2607 17.5863C42.9598 17.8872 42.7907 18.2954 42.7907 18.7209V23.5713L41.9541 22.8545C40.8115 21.9067 39.3736 21.3879 37.889 21.3879C36.4044 21.3879 34.9665 21.9067 33.8239 22.8545L24.9256 30.4884C24.3645 30.9337 23.6693 31.1761 22.9529 31.1761C22.2366 31.1761 21.5413 30.9337 20.9803 30.4884L20.2678 29.8765C19.2146 29.003 17.9083 28.4917 16.542 28.4181C15.1757 28.3445 13.822 28.7126 12.681 29.4678L3.84688 35.4093C3.38174 33.4474 3.16608 31.4346 3.20502 29.4186V16.5814C3.2093 6.70958 6.70958 3.2093 16.5814 3.2093H25.1395C25.5651 3.2093 25.9733 3.04024 26.2742 2.73931C26.5751 2.43838 26.7442 2.03023 26.7442 1.60465C26.7442 1.17907 26.5751 0.770922 26.2742 0.469992C25.9733 0.169061 25.5651 6.34164e-09 25.1395 0H16.5814C4.9573 0 0 4.95944 0 16.5814V29.4186C0 41.0406 4.9573 46 16.5814 46H29.4186C41.0427 46 46 41.0406 46 29.4186V18.7209C46 18.2954 45.8309 17.8872 45.53 17.5863C45.2291 17.2853 44.8209 17.1163 44.3954 17.1163ZM29.4186 42.7907H16.5814C10.6827 42.7907 7.0733 41.5262 5.11135 38.4153L14.4675 32.138C15.0272 31.7776 15.6854 31.6012 16.3503 31.6334C17.0151 31.6657 17.6532 31.9049 18.1753 32.3177L18.8878 32.9296C20.0304 33.8774 21.4684 34.3961 22.9529 34.3961C24.4375 34.3961 25.8754 33.8774 27.018 32.9296L35.9207 25.2914C36.4819 24.8447 37.1781 24.6014 37.8954 24.6014C38.6128 24.6014 39.309 24.8447 39.8702 25.2914L42.795 27.8011V29.4186C42.7907 39.2904 39.2904 42.7907 29.4186 42.7907Z" fill="url(#paint1_linear_129_2771)"/>
<defs>
<linearGradient id="paint0_linear_129_2771" x1="44.3947" y1="6.58346" x2="29.163" y2="7.42156" gradientUnits="userSpaceOnUse">
<stop stop-color="#7EA91A"/>
<stop offset="1" stop-color="#AEDC44"/>
</linearGradient>
<linearGradient id="paint1_linear_129_2771" x1="-0.374479" y1="24.4953" x2="44.9599" y2="24.1052" gradientUnits="userSpaceOnUse">
<stop stop-color="#02E4D8"/>
<stop offset="1" stop-color="#019AED"/>
</linearGradient>
</defs>
</svg>
